<svg width="1200" height="1200" viewBox="0 0 1200 1200" fill="none" xmlns="http://www.w3.org/2000/svg">
  <defs>
    <linearGradient id="bg" x1="120" y1="80" x2="1080" y2="1120" gradientUnits="userSpaceOnUse">
      <stop stop-color="#0D0B24"/>
      <stop offset="1" stop-color="#140B28"/>
    </linearGradient>
    <radialGradient id="wheelGlow" cx="0" cy="0" r="1" gradientUnits="userSpaceOnUse" gradientTransform="translate(600 580) rotate(90) scale(360)">
      <stop stop-color="#F6D06A" stop-opacity="0.24"/>
      <stop offset="1" stop-color="#F6D06A" stop-opacity="0"/>
    </radialGradient>
    <linearGradient id="gold" x1="0" y1="0" x2="1" y2="1">
      <stop stop-color="#FFF0B1"/>
      <stop offset="0.45" stop-color="#E2B84F"/>
      <stop offset="1" stop-color="#9E6507"/>
    </linearGradient>
    <linearGradient id="silver" x1="0" y1="0" x2="1" y2="1">
      <stop stop-color="#F8F6F0"/>
      <stop offset="1" stop-color="#D2D7DE"/>
    </linearGradient>
    <filter id="softShadow" x="-50%" y="-50%" width="200%" height="200%">
      <feDropShadow dx="0" dy="18" stdDeviation="25" flood-color="#000000" flood-opacity="0.4"/>
    </filter>
    <filter id="coinShadow" x="-50%" y="-50%" width="200%" height="200%">
      <feDropShadow dx="0" dy="6" stdDeviation="6" flood-color="#6E4300" flood-opacity="0.35"/>
    </filter>
    <style>
      .title { font: 800 78px 'Arial', sans-serif; letter-spacing: -2px; }
      .label { font: 900 34px 'Arial', sans-serif; }
      .small { font: 900 28px 'Arial', sans-serif; }
    </style>
  </defs>

  <rect width="1200" height="1200" fill="url(#bg)"/>
  <circle cx="160" cy="150" r="2" fill="#ffffff" fill-opacity="0.6"/>
  <circle cx="290" cy="210" r="1.5" fill="#ffffff" fill-opacity="0.45"/>
  <circle cx="980" cy="220" r="2" fill="#ffffff" fill-opacity="0.55"/>
  <circle cx="1035" cy="320" r="1.2" fill="#ffffff" fill-opacity="0.4"/>
  <circle cx="900" cy="920" r="1.7" fill="#ffffff" fill-opacity="0.45"/>
  <circle cx="210" cy="1000" r="1.3" fill="#ffffff" fill-opacity="0.35"/>

  <rect x="170" y="110" width="860" height="980" rx="46" fill="#120B27" stroke="rgba(255,255,255,0.06)"/>

  <text x="600" y="210" text-anchor="middle" class="title" fill="white">SPIN</text>
  <text x="733" y="210" text-anchor="middle" class="title" fill="#B67CFF">&amp;</text>
  <text x="850" y="210" text-anchor="middle" class="title" fill="#F056B5">WIN</text>

  <circle cx="600" cy="590" r="355" fill="url(#wheelGlow)"/>
  <circle cx="600" cy="590" r="315" fill="#1C1E23" stroke="#D2A94B" stroke-width="10" filter="url(#softShadow)"/>
  <circle cx="600" cy="590" r="300" fill="#F5F3EB"/>

  <path d="M600 590L600 290A300 300 0 0 1 859.8 440L600 590Z" fill="#D4D9E0"/>
  <path d="M600 590L859.8 440A300 300 0 0 1 859.8 740L600 590Z" fill="#FCFAF5"/>
  <path d="M600 590L859.8 740A300 300 0 0 1 600 890L600 590Z" fill="#D4D9E0"/>
  <path d="M600 590L600 890A300 300 0 0 1 340.2 740L600 590Z" fill="#FCFAF5"/>
  <path d="M600 590L340.2 740A300 300 0 0 1 340.2 440L600 590Z" fill="#D4D9E0"/>
  <path d="M600 590L340.2 440A300 300 0 0 1 600 290L600 590Z" fill="#FCFAF5"/>

  <line x1="600" y1="290" x2="600" y2="890" stroke="#C79B3F" stroke-width="5"/>
  <line x1="340.2" y1="440" x2="859.8" y2="740" stroke="#C79B3F" stroke-width="5"/>
  <line x1="340.2" y1="740" x2="859.8" y2="440" stroke="#C79B3F" stroke-width="5"/>

  <g transform="translate(600 235)" filter="url(#coinShadow)">
    <path d="M0 0L28 52L-28 52Z" fill="url(#gold)"/>
  </g>

  <g transform="translate(600 590)" filter="url(#softShadow)">
    <circle r="92" fill="#1C222A" stroke="#2C3138" stroke-width="10"/>
    <circle r="72" fill="url(#gold)" opacity="0.18"/>
  </g>

  <text x="600" y="365" text-anchor="middle" class="small" fill="#FFFFFF">PHONE</text>
  <text x="785" y="555" text-anchor="middle" class="label" fill="#121826">100 COINS</text>
  <text x="770" y="768" text-anchor="middle" class="small" fill="#FFFFFF">AIRPODS</text>
  <text x="600" y="835" text-anchor="middle" class="label" fill="#121826">10 COINS</text>
  <text x="420" y="768" text-anchor="middle" class="label" fill="#FFFFFF">50 COINS</text>
  <text x="408" y="555" text-anchor="middle" class="label" fill="#121826">BETTER</text>
  <text x="408" y="593" text-anchor="middle" class="label" fill="#121826">LUCK</text>

  <g transform="translate(775 474)" filter="url(#coinShadow)">
    <ellipse cx="14" cy="52" rx="26" ry="10" fill="#B07812" fill-opacity="0.16"/>
    <g>
      <circle cx="18" cy="24" r="20" fill="url(#gold)"/>
      <circle cx="52" cy="36" r="20" fill="url(#gold)"/>
      <circle cx="84" cy="20" r="20" fill="url(#gold)"/>
      <circle cx="86" cy="54" r="20" fill="url(#gold)"/>
      <circle cx="50" cy="70" r="20" fill="url(#gold)"/>
    </g>
  </g>

  <g transform="translate(376 690)" filter="url(#coinShadow)">
    <ellipse cx="20" cy="54" rx="24" ry="9" fill="#B07812" fill-opacity="0.16"/>
    <circle cx="24" cy="28" r="22" fill="url(#gold)"/>
    <circle cx="62" cy="46" r="22" fill="url(#gold)"/>
    <circle cx="94" cy="26" r="22" fill="url(#gold)"/>
  </g>

  <g transform="translate(565 760)" filter="url(#coinShadow)">
    <circle cx="34" cy="34" r="28" fill="url(#gold)"/>
  </g>

  <g transform="translate(580 304)" filter="url(#coinShadow)">
    <rect x="-28" y="10" width="58" height="108" rx="10" fill="#0B1222" stroke="#2A3B57" stroke-width="3"/>
    <rect x="-18" y="22" width="38" height="84" rx="8" fill="#131F3A"/>
    <circle cx="0" cy="86" r="6" fill="#334E7E"/>
  </g>

  <g transform="translate(760 690)" filter="url(#softShadow)">
    <rect x="-40" y="20" width="80" height="58" rx="20" fill="#F0F3F8"/>
    <path d="M-18 22C-18 0 -2 -10 8 6C14 15 11 29 4 42" stroke="#FFFFFF" stroke-width="10" stroke-linecap="round"/>
    <path d="M8 22C8 0 24 -10 34 6C40 15 37 29 30 42" stroke="#FFFFFF" stroke-width="10" stroke-linecap="round"/>
  </g>

  <rect x="440" y="940" width="320" height="92" rx="32" fill="#1A1C22" stroke="#D4AF62" stroke-width="3"/>
  <text x="600" y="1000" text-anchor="middle" class="label" fill="#F6D67A">SPIN</text>
</svg>
