<svg width="1020" height="240" viewBox="0 0 1020 240" fill="none" xmlns="http://www.w3.org/2000/svg">
<path fill-rule="evenodd" clip-rule="evenodd" d="M459.065 39.3574V86.2644C457.677 84.6712 441.831 71.8764 404.748 71.8764C365.46 71.8764 343.047 98.6529 343.047 141.071C343.047 182.959 365.723 210 406.857 210C440.246 210 456.092 202.57 461.702 194.604V207.349H498.617V30.0005L459.065 39.3574ZM383.126 141.071C383.126 165.196 394.992 173.68 420.305 173.68C445.354 173.68 459.065 164.931 459.065 141.866V139.745C459.065 116.681 445.618 108.197 420.305 108.197C394.992 108.197 383.126 116.681 383.126 141.071Z" fill="#8A3FFC"/>
<path fill-rule="evenodd" clip-rule="evenodd" d="M584.673 210C539.584 210 509.261 182.959 509.261 141.071C509.261 98.6529 539.584 71.8764 584.673 71.8764C629.762 71.8764 660.085 98.6529 660.085 141.071C660.085 182.959 629.762 210 584.673 210ZM584.673 174.74C611.305 174.74 620.797 164.401 620.797 141.071C620.797 117.741 611.305 106.871 584.673 106.871C557.778 106.871 548.549 117.741 548.549 141.071C548.549 164.401 557.778 174.74 584.673 174.74Z" fill="#8A3FFC"/>
<path d="M673.864 161.75C673.864 192.503 698.386 210 742.948 210C783.818 210 808.34 193.563 808.34 168.643C808.34 146.638 795.157 134.708 759.824 130.732L731.61 127.285C714.207 125.164 710.516 122.248 710.516 115.355C710.516 106.871 715.526 103.425 735.301 103.425C759.56 103.425 764.833 108.992 764.833 119.862V121.453H804.385V120.657C804.385 88.3135 779.863 71.8764 736.62 71.8764C691.267 71.8764 671.491 90.4344 671.491 113.764C671.491 136.034 686.257 147.964 712.625 150.88L749.804 155.387C765.361 157.508 769.316 159.629 769.316 167.052C769.316 175.006 764.306 178.452 743.212 178.452C720.799 178.452 713.416 175.271 713.416 163.341V160.955H673.864V161.75Z" fill="#8A3FFC"/>
<path d="M920.014 207.349H887.318C856.468 207.349 837.747 192.768 837.747 159.364V107.402H816.916V74.5276H837.747V60.0757L877.298 50.7188V74.5276H937.728V60.0355L977.28 50.6786V74.5276H1020V107.402H977.28V154.857C977.28 168.113 982.29 171.559 996.265 171.559H1020V207.349H987.3C956.449 207.349 937.728 192.768 937.728 159.364V107.402H877.298V154.857C877.298 168.113 882.308 171.559 896.283 171.559H920.014V207.349Z" fill="#8A3FFC"/>
<path fill-rule="evenodd" clip-rule="evenodd" d="M164.143 0C230.417 0 284.143 53.7258 284.143 120C284.143 186.274 230.417 240 164.143 240C144.375 240 124.841 235.736 106.871 227.5L32.1368 193.247C22.088 188.641 24.0138 173.821 34.9063 171.936L53.4532 168.726C64.9187 166.741 66.1956 150.784 55.1915 147.001L7.59285 130.639C-2.53095 127.159 -2.53095 112.841 7.59285 109.361L55.1915 92.999C66.1956 89.2163 64.9187 73.2591 53.4532 71.2744L34.9063 68.0645C24.0138 66.1792 22.088 51.3592 32.1368 46.7529L106.871 12.5C124.841 4.26388 144.375 3.82741e-05 164.143 0ZM155 142.499C150.168 142.499 146.25 146.417 146.25 151.249C146.25 175.411 165.838 194.999 190 194.999H192.5C216.662 194.999 236.25 175.411 236.25 151.249C236.25 146.417 232.332 142.499 227.5 142.499H155ZM161.25 59.999C152.966 59.999 146.25 66.7148 146.25 74.999V104.999C146.25 113.283 152.966 119.999 161.25 119.999C169.534 119.999 176.25 113.283 176.25 104.999V74.999C176.25 66.7149 169.534 59.9992 161.25 59.999ZM221.25 59.999C212.966 59.999 206.25 66.7148 206.25 74.999V104.999C206.25 113.283 212.966 119.999 221.25 119.999C229.534 119.999 236.25 113.283 236.25 104.999V74.999C236.25 66.7149 229.534 59.9992 221.25 59.999Z" fill="#8A3FFC"/>
</svg>
